<?xml version="1.0" encoding="UTF-8" standalone="no"?>
<svg
   id="PCB_holes"
   data-name="PCB holes"
   width="160.12mm"
   height="118.32mm"
   viewBox="0 0 453.89 335.39"
   version="1.1"
   sodipodi:docname="outline-base.svg"
   inkscape:version="1.2 (dc2aeda, 2022-05-15)"
   xmlns:inkscape="http://www.inkscape.org/namespaces/inkscape"
   xmlns:sodipodi="http://sodipodi.sourceforge.net/DTD/sodipodi-0.dtd"
   xmlns="http://www.w3.org/2000/svg"
   xmlns:svg="http://www.w3.org/2000/svg">
  <sodipodi:namedview
     id="namedview88"
     pagecolor="#505050"
     bordercolor="#ffffff"
     borderopacity="1"
     inkscape:showpageshadow="0"
     inkscape:pageopacity="0"
     inkscape:pagecheckerboard="1"
     inkscape:deskcolor="#505050"
     inkscape:document-units="mm"
     showgrid="false"
     inkscape:zoom="2.9537857"
     inkscape:cx="197.03528"
     inkscape:cy="109.68974"
     inkscape:window-width="2997"
     inkscape:window-height="1584"
     inkscape:window-x="0"
     inkscape:window-y="25"
     inkscape:window-maximized="0"
     inkscape:current-layer="layer3" />
  <defs
     id="defs82">
    <style
       id="style80">
      .cls-1 {
        fill: none;
        stroke: blue;
        stroke-miterlimit: 10;
        stroke-width: .28px;
      }
    </style>
  </defs>
  <g
     inkscape:groupmode="layer"
     id="layer1"
     inkscape:label="Layer 1"
     style="display:none">
    <path
       class="cls-1"
       d="m 452.1,124.61 -51.04,-9 6.59,-37.39 c 0.19,-1.08 -0.53,-2.11 -1.61,-2.3 l -10.78,-1.9 V 13.31 c 0,-1.1 -0.89,-1.98 -1.98,-1.98 l -92.80322,8.52e-4 v 17.00812 H 284.88601 V 11.330852 L 279.87,11.33 V 2.12 c 0,-1.1 -0.89,-1.98 -1.98,-1.98 h -55.63 c -1.1,0 -1.98,0.89 -1.98,1.98 v 9.21 l -3.42647,1.5e-5 V 28.338972 H 204.09744 V 11.330852 H 41.964701 V 25.504285 H 27.79 V 235.27393 h 14.219247 l 8.09e-4,17.00812 H 27.791268 L 27.79,265.46 l -3.7,3.71 -0.48,0.48 -22.89,22.89 c -0.77,0.77 -0.77,2.03 0,2.81 l 39.33,39.33 c 0.77,0.77 2.03,0.77 2.81,0 l 24.82,-24.82 c 11.28,-10.48 23.61,-19.81 36.11,-27.04 15.7,-9.07 32.56,-16.13 48.58,-20.42 17.46,-4.68 35.45,-7.12 52.12,-7.18 h 27.81 c 1.1,0 1.98,-0.89 1.98,-1.98 v -37.01 h 45.3 l 26.15469,1.83413 4.4e-4,-16.80644 h 14.58446 v 17.20938 l 2.04041,0.76293 -1.71,9.72 c -0.19,1.08 0.53,2.11 1.61,2.3 l 54.62,9.63 c 1.08,0.19 2.11,-0.53 2.3,-1.61 l 2.1,-11.91 51.13,9.02 c 1.08,0.19 2.11,-0.53 2.3,-1.61 l 19.02,-107.85 c 0.19,-1.08 -0.53,-2.11 -1.61,-2.3 v 0 z M 211.11,15.84 c 1.64,0 2.98,1.33 2.98,2.98 0,1.65 -1.33,2.98 -2.98,2.98 -1.65,0 -2.98,-1.33 -2.98,-2.98 0,-1.65 1.33,-2.98 2.98,-2.98 z M 35.18,15.73 c 1.64,0 2.98,1.33 2.98,2.98 0,1.65 -1.33,2.98 -2.98,2.98 -1.65,0 -2.98,-1.33 -2.98,-2.98 0,-1.65 1.33,-2.98 2.98,-2.98 z m 0,225.16 c 1.64,0 2.98,1.33 2.98,2.98 0,1.65 -1.33,2.98 -2.98,2.98 -1.65,0 -2.98,-1.33 -2.98,-2.98 0,-1.65 1.33,-2.98 2.98,-2.98 z M 292.63,15.72 c 1.64,0 2.98,1.33 2.98,2.98 0,1.65 -1.33,2.98 -2.98,2.98 -1.65,0 -2.98,-1.33 -2.98,-2.98 0,-1.65 1.33,-2.98 2.98,-2.98 z m 21,195.17 c -1.64,0 -2.98,-1.33 -2.98,-2.98 0,-1.65 1.33,-2.98 2.98,-2.98 1.65,0 2.98,1.33 2.98,2.98 0,1.65 -1.33,2.98 -2.98,2.98 z"
       id="path84"
       style="display:none;stroke:#ffff00"
       sodipodi:nodetypes="cccccsscccccsssscccccccccccccccscscccccsscccccccscccccccsccsssssssssssssssssssssssss"
       inkscape:label="inner" />
    <path
       class="cls-1"
       d="m 452.1,124.61 -51.04,-9 6.59,-37.39 c 0.19,-1.08 -0.53,-2.11 -1.61,-2.3 l -10.78,-1.9 V 13.31 c 0,-1.1 -0.89,-1.98 -1.98,-1.98 H 279.87 V 2.12 c 0,-1.1 -0.89,-1.98 -1.98,-1.98 h -55.63 c -1.1,0 -1.98,0.89 -1.98,1.98 v 9.21 H 29.77 c -1.1,0 -1.98,0.89 -1.98,1.98 v 252.15 l -3.7,3.71 -0.48,0.48 -22.89,22.89 c -0.77,0.77 -0.77,2.03 0,2.81 l 39.33,39.33 c 0.77,0.77 2.03,0.77 2.81,0 l 24.82,-24.82 c 11.28,-10.48 23.61,-19.81 36.11,-27.04 15.7,-9.07 32.56,-16.13 48.58,-20.42 17.46,-4.68 35.45,-7.12 52.12,-7.18 h 27.81 c 1.1,0 1.98,-0.89 1.98,-1.98 v -37.01 h 45.3 l 42.78,3 -1.71,9.72 c -0.19,1.08 0.53,2.11 1.61,2.3 l 54.62,9.63 c 1.08,0.19 2.11,-0.53 2.3,-1.61 l 2.1,-11.91 51.13,9.02 c 1.08,0.19 2.11,-0.53 2.3,-1.61 l 19.02,-107.85 c 0.19,-1.08 -0.53,-2.11 -1.61,-2.3 v 0 z"
       id="path627"
       style="display:none;stroke:#ffff00"
       sodipodi:nodetypes="cccccsscsssscsscccscscccccsscccscccccccscc"
       inkscape:label="original-noholes" />
    <path
       id="path84-7"
       style="display:inline;fill:none;stroke:#ffff00;stroke-width:0.28px;stroke-miterlimit:10"
       class="cls-1"
       d="m 277.62305,-2.8808594 c -11.69542,0.050504 -23.39428,0.008 -35.09102,0.022717 -6.95967,0.017267 -13.9211,-0.03348 -20.87969,0.026111 -2.66946,0.2756082 -4.70933,2.96815338 -4.37304,5.6082031 0,1.8513021 0,3.7026041 0,5.5539062 -62.60538,0.0024 -125.211507,-0.00655 -187.816409,0.013672 -2.797207,0.076302 -5.023472,2.8777851 -4.673829,5.6140631 0,83.420963 10e-7,166.841927 0,250.262887 -8.85059,8.87214 -17.7391743,17.70781 -26.5585932,26.60742 -1.7436936,2.0637 -1.2867324,5.43875 0.81133615,7.08675 13.10232005,13.08485 26.16616005,26.21179 39.30194505,39.26091 2.065769,1.73949 5.440653,1.27767 7.08477,-0.82307 8.306554,-8.28342 16.561724,-16.61994 24.911807,-24.85873 13.196709,-12.17684 27.876554,-22.82529 43.909783,-30.95822 14.68143,-7.56451 30.25478,-13.45721 46.37687,-17.09557 6.7137,-1.53956 13.53203,-2.73759 20.31163,-3.61984 6.60959,-0.84939 13.29199,-1.38809 19.90452,-1.53608 7.74605,-0.14088 15.49426,-0.0255 23.24124,-0.0627 2.99266,-0.0252 5.99305,0.0443 8.98087,-0.058 2.60456,-0.33752 4.53479,-2.99433 4.21406,-5.57257 0,-11.12019 0,-22.24037 0,-33.36055 14.1998,0.01 28.40092,-0.0284 42.5999,0.0277 12.98428,0.9107 25.96855,1.8214 38.95283,2.7321 -0.40859,2.47248 -0.96218,4.9327 -1.20982,7.42461 -0.012,2.59848 2.32067,4.81298 4.87162,4.92069 18.14114,3.18668 36.27401,6.43252 54.42219,9.56681 2.71134,0.24659 5.21522,-2.10396 5.33553,-4.7868 0.48711,-2.76052 0.97423,-5.52104 1.46134,-8.28156 16.24412,2.85271 32.4798,5.76517 48.73047,8.56836 2.71227,0.2482 5.21882,-2.10196 5.33748,-4.7868 6.31862,-35.82756 12.64317,-71.65465 18.94572,-107.48468 0.40094,-2.7509 -1.94225,-5.42698 -4.68246,-5.57401 -15.83697,-2.79304 -31.67393,-5.58608 -47.5109,-8.37912 2.04321,-11.66398 4.14479,-23.319696 6.13868,-34.99023 0.24638,-2.711646 -2.10326,-5.221268 -4.78877,-5.339369 -2.54112,-0.447424 -5.08223,-0.894848 -7.62334,-1.342272 -0.01,-19.584325 0.0297,-39.171148 -0.0293,-58.753906 -0.22916,-2.694638 -2.94898,-4.754959 -5.60039,-4.421875 -36.58763,0 -73.17526,0 -109.76289,0 -0.0293,-2.3972653 0.0939,-4.8091901 -0.0985,-7.1967379 -0.41617,-2.3805757 -2.76549,-4.1155745 -5.14566,-4.0141996 z"
       inkscape:label="outer" />
    <path
       class="cls-1"
       d="m 211.11,15.84 c 1.64,0 2.98,1.33 2.98,2.98 0,1.65 -1.33,2.98 -2.98,2.98 -1.65,0 -2.98,-1.33 -2.98,-2.98 0,-1.65 1.33,-2.98 2.98,-2.98 z M 35.18,15.73 c 1.64,0 2.98,1.33 2.98,2.98 0,1.65 -1.33,2.98 -2.98,2.98 -1.65,0 -2.98,-1.33 -2.98,-2.98 0,-1.65 1.33,-2.98 2.98,-2.98 z m 0,225.16 c 1.64,0 2.98,1.33 2.98,2.98 0,1.65 -1.33,2.98 -2.98,2.98 -1.65,0 -2.98,-1.33 -2.98,-2.98 0,-1.65 1.33,-2.98 2.98,-2.98 z M 292.63,15.72 c 1.64,0 2.98,1.33 2.98,2.98 0,1.65 -1.33,2.98 -2.98,2.98 -1.65,0 -2.98,-1.33 -2.98,-2.98 0,-1.65 1.33,-2.98 2.98,-2.98 z m 21,195.17 c -1.64,0 -2.98,-1.33 -2.98,-2.98 0,-1.65 1.33,-2.98 2.98,-2.98 1.65,0 2.98,1.33 2.98,2.98 0,1.65 -1.33,2.98 -2.98,2.98 z"
       id="path832"
       style="display:inline;stroke:#ffff00"
       sodipodi:nodetypes="sssssssssssssssssssssssss"
       inkscape:label="holes" />
    <path
       class="cls-1"
       d="m 452.1,124.61 -51.04,-9 6.59,-37.39 c 0.19,-1.08 -0.53,-2.11 -1.61,-2.3 l -10.78,-1.9 V 13.31 c 0,-1.1 -0.89,-1.98 -1.98,-1.98 H 279.87 V 2.12 c 0,-1.1 -0.89,-1.98 -1.98,-1.98 h -55.63 c -1.1,0 -1.98,0.89 -1.98,1.98 v 9.21 H 29.77 c -1.1,0 -1.98,0.89 -1.98,1.98 v 252.15 l -3.7,3.71 -0.48,0.48 -22.89,22.89 c -0.77,0.77 -0.77,2.03 0,2.81 l 39.33,39.33 c 0.77,0.77 2.03,0.77 2.81,0 l 24.82,-24.82 c 11.28,-10.48 23.61,-19.81 36.11,-27.04 15.7,-9.07 32.56,-16.13 48.58,-20.42 17.46,-4.68 35.45,-7.12 52.12,-7.18 h 27.81 c 1.1,0 1.98,-0.89 1.98,-1.98 v -37.01 h 45.3 l 42.78,3 -1.71,9.72 c -0.19,1.08 0.53,2.11 1.61,2.3 l 54.62,9.63 c 1.08,0.19 2.11,-0.53 2.3,-1.61 l 2.1,-11.91 51.13,9.02 c 1.08,0.19 2.11,-0.53 2.3,-1.61 l 19.02,-107.85 c 0.19,-1.08 -0.53,-2.11 -1.61,-2.3 v 0 z M 211.11,15.84 c 1.64,0 2.98,1.33 2.98,2.98 0,1.65 -1.33,2.98 -2.98,2.98 -1.65,0 -2.98,-1.33 -2.98,-2.98 0,-1.65 1.33,-2.98 2.98,-2.98 z M 35.18,15.73 c 1.64,0 2.98,1.33 2.98,2.98 0,1.65 -1.33,2.98 -2.98,2.98 -1.65,0 -2.98,-1.33 -2.98,-2.98 0,-1.65 1.33,-2.98 2.98,-2.98 z m 0,225.16 c 1.64,0 2.98,1.33 2.98,2.98 0,1.65 -1.33,2.98 -2.98,2.98 -1.65,0 -2.98,-1.33 -2.98,-2.98 0,-1.65 1.33,-2.98 2.98,-2.98 z M 292.63,15.72 c 1.64,0 2.98,1.33 2.98,2.98 0,1.65 -1.33,2.98 -2.98,2.98 -1.65,0 -2.98,-1.33 -2.98,-2.98 0,-1.65 1.33,-2.98 2.98,-2.98 z m 21,195.17 c -1.64,0 -2.98,-1.33 -2.98,-2.98 0,-1.65 1.33,-2.98 2.98,-2.98 1.65,0 2.98,1.33 2.98,2.98 0,1.65 -1.33,2.98 -2.98,2.98 z"
       id="path844"
       style="display:none;stroke:#ffff00"
       sodipodi:nodetypes="cccccsscsssscsscccscscccccsscccscccccccsccsssssssssssssssssssssssss"
       inkscape:label="original" />
  </g>
  <g
     inkscape:groupmode="layer"
     id="layer3"
     inkscape:label="Layer 2">
    <path
       id="path1842"
       style="display:inline;fill:none;stroke:#ffff00;stroke-width:0.28px;stroke-miterlimit:10"
       class="cls-1"
       inkscape:label="outerWithHoles"
       d="m 277.62305,-2.8808594 c -11.69542,0.050504 -23.39428,0.008 -35.09102,0.022717 -6.95967,0.017267 -13.9211,-0.03348 -20.87969,0.026111 -2.66946,0.2756082 -4.70933,2.96815338 -4.37304,5.6082031 0,1.8513021 0,3.7026041 0,5.5539062 -62.60538,0.0024 -125.211507,-0.00655 -187.816409,0.013672 -2.797207,0.076302 -5.023472,2.8777851 -4.673829,5.6140631 0,83.420963 10e-7,166.841927 0,250.262887 -8.85059,8.87214 -17.7391743,17.70781 -26.5585932,26.60742 -1.7436936,2.0637 -1.2867324,5.43875 0.81133615,7.08675 13.10232005,13.08485 26.16616005,26.21179 39.30194505,39.26091 2.065769,1.73949 5.440653,1.27767 7.08477,-0.82307 8.306554,-8.28342 16.561724,-16.61994 24.911807,-24.85873 13.196709,-12.17684 27.876554,-22.82529 43.909783,-30.95822 14.68143,-7.56451 30.25478,-13.45721 46.37687,-17.09557 6.7137,-1.53956 13.53203,-2.73759 20.31163,-3.61984 6.60959,-0.84939 13.29199,-1.38809 19.90452,-1.53608 7.74605,-0.14088 15.49426,-0.0255 23.24124,-0.0627 2.99266,-0.0252 5.99305,0.0443 8.98087,-0.058 2.60456,-0.33752 4.53479,-2.99433 4.21406,-5.57257 0,-11.12019 0,-22.24037 0,-33.36055 14.1998,0.01 28.40092,-0.0284 42.5999,0.0277 12.98428,0.9107 25.96855,1.8214 38.95283,2.7321 -0.40859,2.47248 -0.96218,4.9327 -1.20982,7.42461 -0.012,2.59848 2.32067,4.81298 4.87162,4.92069 18.14114,3.18668 36.27401,6.43252 54.42219,9.56681 2.71134,0.24659 5.21522,-2.10396 5.33553,-4.7868 0.48711,-2.76052 0.97423,-5.52104 1.46134,-8.28156 16.24412,2.85271 32.4798,5.76517 48.73047,8.56836 2.71227,0.2482 5.21882,-2.10196 5.33748,-4.7868 6.31862,-35.82756 12.64317,-71.65465 18.94572,-107.48468 0.40094,-2.7509 -1.94225,-5.42698 -4.68246,-5.57401 -15.83697,-2.79304 -31.67393,-5.58608 -47.5109,-8.37912 2.04321,-11.66398 4.14479,-23.319696 6.13868,-34.99023 0.24638,-2.711646 -2.10326,-5.221268 -4.78877,-5.339369 -2.54112,-0.447424 -5.08223,-0.894848 -7.62334,-1.342272 -0.01,-19.584325 0.0297,-39.171148 -0.0293,-58.753906 -0.22916,-2.694638 -2.94898,-4.754959 -5.60039,-4.421875 -36.58763,0 -73.17526,0 -109.76289,0 -0.0293,-2.3972653 0.0939,-4.8091901 -0.0985,-7.1967379 -0.41617,-2.3805757 -2.76549,-4.1155745 -5.14566,-4.0141996 z M 211.11,15.84 c 1.64,0 2.98,1.33 2.98,2.98 0,1.65 -1.33,2.98 -2.98,2.98 -1.65,0 -2.98,-1.33 -2.98,-2.98 0,-1.65 1.33,-2.98 2.98,-2.98 z M 35.18,15.73 c 1.64,0 2.98,1.33 2.98,2.98 0,1.65 -1.33,2.98 -2.98,2.98 -1.65,0 -2.98,-1.33 -2.98,-2.98 0,-1.65 1.33,-2.98 2.98,-2.98 z m 0,225.16 c 1.64,0 2.98,1.33 2.98,2.98 0,1.65 -1.33,2.98 -2.98,2.98 -1.65,0 -2.98,-1.33 -2.98,-2.98 0,-1.65 1.33,-2.98 2.98,-2.98 z M 292.63,15.72 c 1.64,0 2.98,1.33 2.98,2.98 0,1.65 -1.33,2.98 -2.98,2.98 -1.65,0 -2.98,-1.33 -2.98,-2.98 0,-1.65 1.33,-2.98 2.98,-2.98 z m 21,195.17 c -1.64,0 -2.98,-1.33 -2.98,-2.98 0,-1.65 1.33,-2.98 2.98,-2.98 1.65,0 2.98,1.33 2.98,2.98 0,1.65 -1.33,2.98 -2.98,2.98 z" />
  </g>
</svg>
