<?xml version="1.0" encoding="UTF-8" standalone="no"?>
<svg
   id="PCB_holes"
   data-name="PCB holes"
   width="160.12mm"
   height="118.32mm"
   viewBox="0 0 453.89 335.39"
   version="1.1"
   sodipodi:docname="mcuCoverInsert.svg"
   inkscape:version="1.2.2 (b0a84865, 2022-12-01)"
   xmlns:inkscape="http://www.inkscape.org/namespaces/inkscape"
   xmlns:sodipodi="http://sodipodi.sourceforge.net/DTD/sodipodi-0.dtd"
   xmlns="http://www.w3.org/2000/svg"
   xmlns:svg="http://www.w3.org/2000/svg">
  <sodipodi:namedview
     id="namedview670"
     pagecolor="#505050"
     bordercolor="#ffffff"
     borderopacity="1"
     inkscape:showpageshadow="0"
     inkscape:pageopacity="0"
     inkscape:pagecheckerboard="1"
     inkscape:deskcolor="#505050"
     inkscape:document-units="mm"
     showgrid="false"
     inkscape:zoom="3.7165103"
     inkscape:cx="173.1463"
     inkscape:cy="110.45308"
     inkscape:window-width="1728"
     inkscape:window-height="1051"
     inkscape:window-x="0"
     inkscape:window-y="38"
     inkscape:window-maximized="0"
     inkscape:current-layer="layer2" />
  <defs
     id="defs664">
    <style
       id="style662">
      .cls-1 {
        fill: none;
        stroke: blue;
        stroke-miterlimit: 10;
        stroke-width: .28px;
      }
    </style>
  </defs>
  <g
     id="Acrylcase"
     style="display:none;stroke:#ffff00">
    <path
       class="cls-1"
       d="m 452.1,124.61 -51.04,-9 6.59,-37.39 c 0.19,-1.08 -0.53,-2.11 -1.61,-2.3 l -10.78,-1.9 V 13.31 c 0,-1.1 -0.89,-1.98 -1.98,-1.98 H 279.87 V 2.12 c 0,-1.1 -0.89,-1.98 -1.98,-1.98 h -55.63 c -1.1,0 -1.98,0.89 -1.98,1.98 v 9.21 H 99.214033 V 153.06802 H 42.5203 V 11.33 H 29.77 c -1.1,0 -1.98,0.89 -1.98,1.98 v 252.15 l -3.7,3.71 -0.48,0.48 -22.89,22.89 c -0.77,0.77 -0.77,2.03 0,2.81 l 39.33,39.33 c 0.77,0.77 2.03,0.77 2.81,0 l 24.82,-24.82 c 11.28,-10.48 23.61,-19.81 36.11,-27.04 15.7,-9.07 32.56,-16.13 48.58,-20.42 17.46,-4.68 35.45,-7.12 52.12,-7.18 h 27.81 c 1.1,0 1.98,-0.89 1.98,-1.98 v -37.01 h 45.3 l 42.78,3 -1.71,9.72 c -0.19,1.08 0.53,2.11 1.61,2.3 l 54.62,9.63 c 1.08,0.19 2.11,-0.53 2.3,-1.61 l 2.1,-11.91 51.13,9.02 c 1.08,0.19 2.11,-0.53 2.3,-1.61 l 19.02,-107.85 c 0.19,-1.08 -0.53,-2.11 -1.61,-2.3 v 0 z M 230.22,9.97 h 39.69 v 39.69 h -39.69 z m -19.11,5.87 c 1.64,0 2.98,1.33 2.98,2.98 0,1.65 -1.33,2.98 -2.98,2.98 -1.65,0 -2.98,-1.33 -2.98,-2.98 0,-1.65 1.33,-2.98 2.98,-2.98 z M 176.3,35.48 h 39.69 V 75.16 H 176.3 Z m 0,54.1 h 39.69 v 39.69 H 176.3 Z m -53.84,-45.7 h 39.68 v 39.69 h -39.68 z m -0.08,54.14 h 39.68 v 39.69 h -39.68 z m 0,54.14 h 39.68 v 39.69 h -39.68 z m -32.92,12.83 v 37.42 H 50.92 V 164.99 H 89.47 Z M 35.18,15.73 c 1.64,0 2.98,1.33 2.98,2.98 0,1.65 -1.33,2.98 -2.98,2.98 -1.65,0 -2.98,-1.33 -2.98,-2.98 0,-1.65 1.33,-2.98 2.98,-2.98 z m 0,225.16 c 1.64,0 2.98,1.33 2.98,2.98 0,1.65 -1.33,2.98 -2.98,2.98 -1.65,0 -2.98,-1.33 -2.98,-2.98 0,-1.65 1.33,-2.98 2.98,-2.98 z m 5.92,81.28 -28.06,-28.06 28.06,-28.06 28.06,28.06 z m 40.52,-37.93 -19.84,-34.37 34.37,-19.84 19.84,34.37 z m 48.94,-26.06 -10.27,-38.33 38.33,-10.27 10.27,38.33 z m 45.67,-114.67 h 39.69 v 39.69 h -39.69 z m 48.05,102.05 H 184.6 v -39.68 h 39.68 z m 5.95,-181.69 h 39.69 v 39.69 h -39.69 z m 39.76,93.82 H 230.3 v -39.68 h 39.69 z m 3.24,-44.37 c -1.64,0 -2.98,-1.33 -2.98,-2.98 0,-1.65 1.33,-2.98 2.98,-2.98 1.65,0 2.98,1.33 2.98,2.98 0,1.65 -1.33,2.98 -2.98,2.98 z m 84.31,-35.76 39.08,6.89 -6.89,39.08 -39.08,-6.89 z M 292.63,15.72 c 1.64,0 2.98,1.33 2.98,2.98 0,1.65 -1.33,2.98 -2.98,2.98 -1.65,0 -2.98,-1.33 -2.98,-2.98 0,-1.65 1.33,-2.98 2.98,-2.98 z m 21,195.17 c -1.64,0 -2.98,-1.33 -2.98,-2.98 0,-1.65 1.33,-2.98 2.98,-2.98 1.65,0 2.98,1.33 2.98,2.98 0,1.65 -1.33,2.98 -2.98,2.98 z m 9.11,-22.48 -39.59,-2.77 2.77,-39.59 39.59,2.77 z m 3.7,-54.01 -39.59,-2.77 2.77,-39.59 39.59,2.77 z m -35.83,-56.53 2.77,-39.59 39.59,2.77 -2.77,39.59 z m 80.42,152.07 -39.08,-6.89 6.89,-39.08 39.08,6.89 z m 9.33,-53.33 -39.08,-6.89 6.89,-39.08 39.08,6.89 z m 46.22,48.66 -39.08,-6.89 6.89,-39.08 39.08,6.89 z m 9.33,-53.33 -39.08,-6.89 6.89,-39.08 39.08,6.89 z"
       id="path666"
       style="stroke:#ffff00"
       sodipodi:nodetypes="cccccsscsssscccccsscccscscccccsscccscccccccscccccccssssscccccccccccccccccccccccccccccccsssssssssscccccccccccccccccccccccccccccccccccscssscscccscsssssssscsccccccccccccccccccccccccccccccccc" />
  </g>
  <g
     inkscape:groupmode="layer"
     id="layer1"
     inkscape:label="Layer 1"
     style="display:none">
    <rect
       style="fill:none;stroke:#00ff00;stroke-width:0.429855;stroke-dasharray:none"
       id="rect3574"
       width="81.776054"
       height="144.13916"
       x="29.270466"
       y="12.965673" />
    <circle
       style="fill:none;stroke:#00ff00;stroke-width:0.583947;stroke-dasharray:none"
       id="path3784"
       cx="35.214993"
       cy="18.661915"
       r="3.0486076" />
  </g>
  <g
     inkscape:groupmode="layer"
     id="layer2"
     inkscape:label="Layer 2">
    <path
       id="circle6119"
       style="fill:none;stroke:#00ff00;stroke-width:0.583947"
       d="m 38.2636,18.661915 a 3.0486076,3.0486076 0 0 1 -3.048607,3.048607 3.0486076,3.0486076 0 0 1 -3.048608,-3.048607 3.0486076,3.0486076 0 0 1 3.048608,-3.048608 3.0486076,3.0486076 0 0 1 3.048607,3.048608 z M 29.270466,12.965673 H 111.04652 V 157.10483 H 29.270466 Z" />
  </g>
</svg>
