<?xml version="1.0" encoding="UTF-8" standalone="no"?>
<svg
   id="PCB_holes"
   data-name="PCB holes"
   width="160.12mm"
   height="118.32mm"
   viewBox="0 0 453.89 335.39"
   version="1.1"
   sodipodi:docname="outerLip.svg"
   inkscape:version="1.2 (dc2aeda, 2022-05-15)"
   xmlns:inkscape="http://www.inkscape.org/namespaces/inkscape"
   xmlns:sodipodi="http://sodipodi.sourceforge.net/DTD/sodipodi-0.dtd"
   xmlns="http://www.w3.org/2000/svg"
   xmlns:svg="http://www.w3.org/2000/svg">
  <sodipodi:namedview
     id="namedview88"
     pagecolor="#505050"
     bordercolor="#ffffff"
     borderopacity="1"
     inkscape:showpageshadow="0"
     inkscape:pageopacity="0"
     inkscape:pagecheckerboard="1"
     inkscape:deskcolor="#505050"
     inkscape:document-units="mm"
     showgrid="false"
     inkscape:zoom="2.9537857"
     inkscape:cx="197.03528"
     inkscape:cy="163.85752"
     inkscape:window-width="2997"
     inkscape:window-height="1584"
     inkscape:window-x="0"
     inkscape:window-y="25"
     inkscape:window-maximized="0"
     inkscape:current-layer="layer2" />
  <defs
     id="defs82">
    <style
       id="style80">
      .cls-1 {
        fill: none;
        stroke: blue;
        stroke-miterlimit: 10;
        stroke-width: .28px;
      }
    </style>
  </defs>
  <g
     inkscape:groupmode="layer"
     id="layer1"
     inkscape:label="Layer 1"
     style="display:none">
    <path
       class="cls-1"
       d="m 452.1,124.61 -51.04,-9 6.59,-37.39 c 0.19,-1.08 -0.53,-2.11 -1.61,-2.3 l -10.78,-1.9 V 13.31 c 0,-1.1 -0.89,-1.98 -1.98,-1.98 l -92.80322,8.52e-4 v 17.00812 H 284.88601 V 11.330852 L 279.87,11.33 V 2.12 c 0,-1.1 -0.89,-1.98 -1.98,-1.98 h -55.63 c -1.1,0 -1.98,0.89 -1.98,1.98 v 9.21 l -3.42647,1.5e-5 V 28.338972 H 204.09744 V 11.330852 H 41.964701 V 25.504285 H 27.79 V 235.27393 h 14.219247 l 8.09e-4,17.00812 H 27.791268 L 27.79,265.46 l -3.7,3.71 -0.48,0.48 -22.89,22.89 c -0.77,0.77 -0.77,2.03 0,2.81 l 39.33,39.33 c 0.77,0.77 2.03,0.77 2.81,0 l 24.82,-24.82 c 11.28,-10.48 23.61,-19.81 36.11,-27.04 15.7,-9.07 32.56,-16.13 48.58,-20.42 17.46,-4.68 35.45,-7.12 52.12,-7.18 h 27.81 c 1.1,0 1.98,-0.89 1.98,-1.98 v -37.01 h 45.3 l 26.15469,1.83413 4.4e-4,-16.80644 h 14.58446 v 17.20938 l 2.04041,0.76293 -1.71,9.72 c -0.19,1.08 0.53,2.11 1.61,2.3 l 54.62,9.63 c 1.08,0.19 2.11,-0.53 2.3,-1.61 l 2.1,-11.91 51.13,9.02 c 1.08,0.19 2.11,-0.53 2.3,-1.61 l 19.02,-107.85 c 0.19,-1.08 -0.53,-2.11 -1.61,-2.3 v 0 z M 211.11,15.84 c 1.64,0 2.98,1.33 2.98,2.98 0,1.65 -1.33,2.98 -2.98,2.98 -1.65,0 -2.98,-1.33 -2.98,-2.98 0,-1.65 1.33,-2.98 2.98,-2.98 z M 35.18,15.73 c 1.64,0 2.98,1.33 2.98,2.98 0,1.65 -1.33,2.98 -2.98,2.98 -1.65,0 -2.98,-1.33 -2.98,-2.98 0,-1.65 1.33,-2.98 2.98,-2.98 z m 0,225.16 c 1.64,0 2.98,1.33 2.98,2.98 0,1.65 -1.33,2.98 -2.98,2.98 -1.65,0 -2.98,-1.33 -2.98,-2.98 0,-1.65 1.33,-2.98 2.98,-2.98 z M 292.63,15.72 c 1.64,0 2.98,1.33 2.98,2.98 0,1.65 -1.33,2.98 -2.98,2.98 -1.65,0 -2.98,-1.33 -2.98,-2.98 0,-1.65 1.33,-2.98 2.98,-2.98 z m 21,195.17 c -1.64,0 -2.98,-1.33 -2.98,-2.98 0,-1.65 1.33,-2.98 2.98,-2.98 1.65,0 2.98,1.33 2.98,2.98 0,1.65 -1.33,2.98 -2.98,2.98 z"
       id="path84"
       style="display:none;stroke:#ffff00"
       sodipodi:nodetypes="cccccsscccccsssscccccccccccccccscscccccsscccccccscccccccsccsssssssssssssssssssssssss"
       inkscape:label="inner" />
    <path
       class="cls-1"
       d="m 452.1,124.61 -51.04,-9 6.59,-37.39 c 0.19,-1.08 -0.53,-2.11 -1.61,-2.3 l -10.78,-1.9 V 13.31 c 0,-1.1 -0.89,-1.98 -1.98,-1.98 H 279.87 V 2.12 c 0,-1.1 -0.89,-1.98 -1.98,-1.98 h -55.63 c -1.1,0 -1.98,0.89 -1.98,1.98 v 9.21 H 29.77 c -1.1,0 -1.98,0.89 -1.98,1.98 v 252.15 l -3.7,3.71 -0.48,0.48 -22.89,22.89 c -0.77,0.77 -0.77,2.03 0,2.81 l 39.33,39.33 c 0.77,0.77 2.03,0.77 2.81,0 l 24.82,-24.82 c 11.28,-10.48 23.61,-19.81 36.11,-27.04 15.7,-9.07 32.56,-16.13 48.58,-20.42 17.46,-4.68 35.45,-7.12 52.12,-7.18 h 27.81 c 1.1,0 1.98,-0.89 1.98,-1.98 v -37.01 h 45.3 l 42.78,3 -1.71,9.72 c -0.19,1.08 0.53,2.11 1.61,2.3 l 54.62,9.63 c 1.08,0.19 2.11,-0.53 2.3,-1.61 l 2.1,-11.91 51.13,9.02 c 1.08,0.19 2.11,-0.53 2.3,-1.61 l 19.02,-107.85 c 0.19,-1.08 -0.53,-2.11 -1.61,-2.3 v 0 z"
       id="path627"
       style="display:inline;stroke:#ffff00"
       sodipodi:nodetypes="cccccsscsssscsscccscscccccsscccscccccccscc"
       inkscape:label="original-noholes" />
    <path
       class="cls-1"
       d="m 211.11,15.84 c 1.64,0 2.98,1.33 2.98,2.98 0,1.65 -1.33,2.98 -2.98,2.98 -1.65,0 -2.98,-1.33 -2.98,-2.98 0,-1.65 1.33,-2.98 2.98,-2.98 z M 35.18,15.73 c 1.64,0 2.98,1.33 2.98,2.98 0,1.65 -1.33,2.98 -2.98,2.98 -1.65,0 -2.98,-1.33 -2.98,-2.98 0,-1.65 1.33,-2.98 2.98,-2.98 z m 0,225.16 c 1.64,0 2.98,1.33 2.98,2.98 0,1.65 -1.33,2.98 -2.98,2.98 -1.65,0 -2.98,-1.33 -2.98,-2.98 0,-1.65 1.33,-2.98 2.98,-2.98 z M 292.63,15.72 c 1.64,0 2.98,1.33 2.98,2.98 0,1.65 -1.33,2.98 -2.98,2.98 -1.65,0 -2.98,-1.33 -2.98,-2.98 0,-1.65 1.33,-2.98 2.98,-2.98 z m 21,195.17 c -1.64,0 -2.98,-1.33 -2.98,-2.98 0,-1.65 1.33,-2.98 2.98,-2.98 1.65,0 2.98,1.33 2.98,2.98 0,1.65 -1.33,2.98 -2.98,2.98 z"
       id="path832"
       style="display:none;stroke:#ffff00"
       sodipodi:nodetypes="sssssssssssssssssssssssss"
       inkscape:label="holes" />
    <path
       id="path84-7"
       style="display:inline;fill:none;stroke:#ffff00;stroke-width:0.28px;stroke-miterlimit:10"
       class="cls-1"
       d="m 277.62305,-2.8808594 c -11.69542,0.050504 -23.39428,0.008 -35.09102,0.022717 -6.95967,0.017267 -13.9211,-0.03348 -20.87969,0.026111 -2.66946,0.2756082 -4.70933,2.96815338 -4.37304,5.6082031 0,1.8513021 0,3.7026041 0,5.5539062 -62.60538,0.0024 -125.211507,-0.00655 -187.816409,0.013672 -2.797207,0.076302 -5.023472,2.8777851 -4.673829,5.6140631 0,83.420963 10e-7,166.841927 0,250.262887 -8.85059,8.87214 -17.7391743,17.70781 -26.5585932,26.60742 -1.7436936,2.0637 -1.2867324,5.43875 0.81133615,7.08675 13.10232005,13.08485 26.16616005,26.21179 39.30194505,39.26091 2.065769,1.73949 5.440653,1.27767 7.08477,-0.82307 8.306554,-8.28342 16.561724,-16.61994 24.911807,-24.85873 13.196709,-12.17684 27.876554,-22.82529 43.909783,-30.95822 14.68143,-7.56451 30.25478,-13.45721 46.37687,-17.09557 6.7137,-1.53956 13.53203,-2.73759 20.31163,-3.61984 6.60959,-0.84939 13.29199,-1.38809 19.90452,-1.53608 7.74605,-0.14088 15.49426,-0.0255 23.24124,-0.0627 2.99266,-0.0252 5.99305,0.0443 8.98087,-0.058 2.60456,-0.33752 4.53479,-2.99433 4.21406,-5.57257 0,-11.12019 0,-22.24037 0,-33.36055 14.1998,0.01 28.40092,-0.0284 42.5999,0.0277 12.98428,0.9107 25.96855,1.8214 38.95283,2.7321 -0.40859,2.47248 -0.96218,4.9327 -1.20982,7.42461 -0.012,2.59848 2.32067,4.81298 4.87162,4.92069 18.14114,3.18668 36.27401,6.43252 54.42219,9.56681 2.71134,0.24659 5.21522,-2.10396 5.33553,-4.7868 0.48711,-2.76052 0.97423,-5.52104 1.46134,-8.28156 16.24412,2.85271 32.4798,5.76517 48.73047,8.56836 2.71227,0.2482 5.21882,-2.10196 5.33748,-4.7868 6.31862,-35.82756 12.64317,-71.65465 18.94572,-107.48468 0.40094,-2.7509 -1.94225,-5.42698 -4.68246,-5.57401 -15.83697,-2.79304 -31.67393,-5.58608 -47.5109,-8.37912 2.04321,-11.66398 4.14479,-23.319696 6.13868,-34.99023 0.24638,-2.711646 -2.10326,-5.221268 -4.78877,-5.339369 -2.54112,-0.447424 -5.08223,-0.894848 -7.62334,-1.342272 -0.01,-19.584325 0.0297,-39.171148 -0.0293,-58.753906 -0.22916,-2.694638 -2.94898,-4.754959 -5.60039,-4.421875 -36.58763,0 -73.17526,0 -109.76289,0 -0.0293,-2.3972653 0.0939,-4.8091901 -0.0985,-7.1967379 -0.41617,-2.3805757 -2.76549,-4.1155745 -5.14566,-4.0141996 z"
       inkscape:label="outer" />
    <path
       class="cls-1"
       d="m 452.1,124.61 -51.04,-9 6.59,-37.39 c 0.19,-1.08 -0.53,-2.11 -1.61,-2.3 l -10.78,-1.9 V 13.31 c 0,-1.1 -0.89,-1.98 -1.98,-1.98 H 279.87 V 2.12 c 0,-1.1 -0.89,-1.98 -1.98,-1.98 h -55.63 c -1.1,0 -1.98,0.89 -1.98,1.98 v 9.21 H 29.77 c -1.1,0 -1.98,0.89 -1.98,1.98 v 252.15 l -3.7,3.71 -0.48,0.48 -22.89,22.89 c -0.77,0.77 -0.77,2.03 0,2.81 l 39.33,39.33 c 0.77,0.77 2.03,0.77 2.81,0 l 24.82,-24.82 c 11.28,-10.48 23.61,-19.81 36.11,-27.04 15.7,-9.07 32.56,-16.13 48.58,-20.42 17.46,-4.68 35.45,-7.12 52.12,-7.18 h 27.81 c 1.1,0 1.98,-0.89 1.98,-1.98 v -37.01 h 45.3 l 42.78,3 -1.71,9.72 c -0.19,1.08 0.53,2.11 1.61,2.3 l 54.62,9.63 c 1.08,0.19 2.11,-0.53 2.3,-1.61 l 2.1,-11.91 51.13,9.02 c 1.08,0.19 2.11,-0.53 2.3,-1.61 l 19.02,-107.85 c 0.19,-1.08 -0.53,-2.11 -1.61,-2.3 v 0 z M 211.11,15.84 c 1.64,0 2.98,1.33 2.98,2.98 0,1.65 -1.33,2.98 -2.98,2.98 -1.65,0 -2.98,-1.33 -2.98,-2.98 0,-1.65 1.33,-2.98 2.98,-2.98 z M 35.18,15.73 c 1.64,0 2.98,1.33 2.98,2.98 0,1.65 -1.33,2.98 -2.98,2.98 -1.65,0 -2.98,-1.33 -2.98,-2.98 0,-1.65 1.33,-2.98 2.98,-2.98 z m 0,225.16 c 1.64,0 2.98,1.33 2.98,2.98 0,1.65 -1.33,2.98 -2.98,2.98 -1.65,0 -2.98,-1.33 -2.98,-2.98 0,-1.65 1.33,-2.98 2.98,-2.98 z M 292.63,15.72 c 1.64,0 2.98,1.33 2.98,2.98 0,1.65 -1.33,2.98 -2.98,2.98 -1.65,0 -2.98,-1.33 -2.98,-2.98 0,-1.65 1.33,-2.98 2.98,-2.98 z m 21,195.17 c -1.64,0 -2.98,-1.33 -2.98,-2.98 0,-1.65 1.33,-2.98 2.98,-2.98 1.65,0 2.98,1.33 2.98,2.98 0,1.65 -1.33,2.98 -2.98,2.98 z"
       id="path844"
       style="display:none;stroke:#ffff00"
       sodipodi:nodetypes="cccccsscsssscsscccscscccccsscccscccccccsccsssssssssssssssssssssssss"
       inkscape:label="original" />
  </g>
  <g
     inkscape:groupmode="layer"
     id="layer2"
     inkscape:label="Layer 2"
     style="display:inline">
    <path
       id="path2004"
       style="display:inline;fill:none;stroke:#ffff00;stroke-width:0.28px;stroke-miterlimit:10"
       class="cls-1"
       inkscape:label="outerLip"
       d="M 277.62267 -2.8805899 C 265.92726 -2.830086 254.22855 -2.873334 242.53183 -2.858617 C 235.57216 -2.84135 228.61022 -2.8918403 221.65164 -2.8322494 C 218.98218 -2.5566415 216.94273 0.13667133 217.27902 2.7767184 L 217.27902 8.3300213 C 154.6737 8.3324213 92.067668 8.3229832 29.462828 8.3432051 C 26.665624 8.4195071 24.438802 11.221757 24.788444 13.958032 L 24.788444 264.22142 C 15.937863 273.09355 7.0498532 281.92816 -1.7695568 290.82776 C -3.5132487 292.89146 -3.0560881 296.26678 -0.95802166 297.91477 C 12.144285 310.99961 25.208532 324.12698 38.344304 337.17608 C 40.410071 338.91557 43.784276 338.45357 45.428391 336.35283 C 53.734937 328.06942 61.989809 319.73285 70.339884 311.49407 C 83.53658 299.31724 98.217462 288.66854 114.25068 280.53562 C 128.93209 272.97111 144.50476 267.079 160.62683 263.44064 C 167.34053 261.90108 174.15906 260.70321 180.93865 259.82096 C 187.54823 258.97157 194.23071 258.43231 200.84324 258.28432 C 208.58928 258.14344 216.33781 258.25853 224.08478 258.22133 C 227.07744 258.19613 230.07805 258.2665 233.06587 258.1642 C 235.67043 257.82668 237.59955 255.16863 237.27882 252.59039 L 237.27882 219.23102 C 251.47861 219.24102 265.67959 219.20275 279.87856 219.25885 L 318.83225 221.99083 C 318.42366 224.4633 317.86991 226.92285 317.62227 229.41476 C 317.61027 232.01324 319.94346 234.22753 322.49441 234.33524 C 340.63553 237.52192 358.76744 240.76799 376.91561 243.90227 C 379.62694 244.14886 382.1318 241.79793 382.25211 239.1151 C 382.73922 236.35458 383.22547 233.59473 383.71258 230.83421 C 399.95668 233.68692 416.19212 236.59902 432.44278 239.40221 C 435.15504 239.65041 437.66208 237.29987 437.78074 234.61503 C 444.09936 198.78751 450.4233 162.96056 456.72584 127.13057 C 457.12678 124.37967 454.78434 121.70379 452.04413 121.55676 L 404.5327 113.17773 C 406.57591 101.51376 408.67806 89.858487 410.67195 78.187965 C 410.91833 75.476322 408.56882 72.966633 405.88331 72.848532 C 403.34219 72.401109 400.80126 71.952675 398.26015 71.505251 C 398.25015 51.920946 398.28985 32.335187 398.23085 12.752449 C 398.0017 10.057813 395.28208 7.9969377 392.63068 8.3300213 L 282.86688 8.3300213 C 282.83758 5.9327584 282.96114 3.5206854 282.76874 1.13314 C 282.35257 -1.2474334 280.00283 -2.9819647 277.62267 -2.8805899 z M 222.25956 0.13996154 L 277.88927 0.13996154 C 278.97927 0.13996154 279.86977 1.02046 279.86977 2.1204589 L 279.86977 11.330065 L 393.27961 11.330065 C 394.36961 11.330065 395.26011 12.210563 395.26011 13.310562 L 395.26011 74.020424 L 406.04005 75.920354 C 407.12005 76.110354 407.83994 77.140193 407.64994 78.220192 L 401.05951 115.6094 L 452.0998 124.60953 L 452.12031 124.61979 C 453.2003 124.80979 453.92019 125.83963 453.73019 126.91963 L 434.71039 234.77031 C 434.52039 235.85031 433.49055 236.57019 432.41055 236.38019 L 381.27944 227.35956 L 379.18029 239.27037 C 378.99029 240.35037 377.96045 241.07026 376.88045 240.88026 L 322.26003 231.25024 C 321.18003 231.06024 320.46014 230.0304 320.65014 228.9504 L 322.35964 219.22955 L 279.57973 216.22951 L 234.28024 216.22951 L 234.28024 253.23932 C 234.28024 254.32932 233.39974 255.21982 232.29975 255.21982 L 204.48928 255.21982 C 187.8193 255.27982 169.82937 257.72059 152.36939 262.40059 C 136.34941 266.69058 119.49006 273.74935 103.79007 282.81934 C 91.290087 290.04933 78.959678 299.37929 67.679689 309.85928 L 42.860483 334.67995 C 42.080484 335.44995 40.819406 335.44995 40.049407 334.67995 L 0.72071354 295.3498 C -0.049285686 294.5698 -0.049285686 293.31018 0.72071354 292.54018 L 23.610693 269.65021 L 24.089704 269.16973 L 27.789953 265.46069 L 27.789953 13.310562 C 27.789953 12.220563 28.670451 11.330065 29.77045 11.330065 L 220.28053 11.330065 L 220.28053 2.1204589 C 220.28053 1.03046 221.15956 0.13996154 222.25956 0.13996154 z " />
  </g>
</svg>
