<?xml version="1.0" encoding="UTF-8" standalone="no"?>
<svg
   id="PCB_holes"
   data-name="PCB holes"
   width="160.12mm"
   height="118.32mm"
   viewBox="0 0 453.89 335.39"
   version="1.1"
   sodipodi:docname="side.svg"
   inkscape:version="1.2 (dc2aeda, 2022-05-15)"
   xmlns:inkscape="http://www.inkscape.org/namespaces/inkscape"
   xmlns:sodipodi="http://sodipodi.sourceforge.net/DTD/sodipodi-0.dtd"
   xmlns="http://www.w3.org/2000/svg"
   xmlns:svg="http://www.w3.org/2000/svg">
  <sodipodi:namedview
     id="namedview88"
     pagecolor="#505050"
     bordercolor="#ffffff"
     borderopacity="1"
     inkscape:showpageshadow="0"
     inkscape:pageopacity="0"
     inkscape:pagecheckerboard="1"
     inkscape:deskcolor="#505050"
     inkscape:document-units="mm"
     showgrid="false"
     inkscape:zoom="2.9537857"
     inkscape:cx="197.03528"
     inkscape:cy="190.94141"
     inkscape:window-width="2997"
     inkscape:window-height="1584"
     inkscape:window-x="0"
     inkscape:window-y="25"
     inkscape:window-maximized="0"
     inkscape:current-layer="layer4" />
  <defs
     id="defs82">
    <style
       id="style80">
      .cls-1 {
        fill: none;
        stroke: blue;
        stroke-miterlimit: 10;
        stroke-width: .28px;
      }
    </style>
  </defs>
  <g
     inkscape:groupmode="layer"
     id="layer1"
     inkscape:label="Layer 1"
     style="display:none">
    <path
       class="cls-1"
       d="m 452.1,124.61 -51.04,-9 6.59,-37.39 c 0.19,-1.08 -0.53,-2.11 -1.61,-2.3 l -10.78,-1.9 V 13.31 c 0,-1.1 -0.89,-1.98 -1.98,-1.98 l -92.80322,8.52e-4 v 17.00812 H 284.88601 V 11.330852 L 279.87,11.33 V 2.12 c 0,-1.1 -0.89,-1.98 -1.98,-1.98 h -55.63 c -1.1,0 -1.98,0.89 -1.98,1.98 v 9.21 l -3.42647,1.5e-5 V 28.338972 H 204.09744 V 11.330852 H 41.964701 V 25.504285 H 27.79 V 235.27393 h 14.219247 l 8.09e-4,17.00812 H 27.791268 L 27.79,265.46 l -3.7,3.71 -0.48,0.48 -22.89,22.89 c -0.77,0.77 -0.77,2.03 0,2.81 l 39.33,39.33 c 0.77,0.77 2.03,0.77 2.81,0 l 24.82,-24.82 c 11.28,-10.48 23.61,-19.81 36.11,-27.04 15.7,-9.07 32.56,-16.13 48.58,-20.42 17.46,-4.68 35.45,-7.12 52.12,-7.18 h 27.81 c 1.1,0 1.98,-0.89 1.98,-1.98 v -37.01 h 45.3 l 26.15469,1.83413 4.4e-4,-16.80644 h 14.58446 v 17.20938 l 2.04041,0.76293 -1.71,9.72 c -0.19,1.08 0.53,2.11 1.61,2.3 l 54.62,9.63 c 1.08,0.19 2.11,-0.53 2.3,-1.61 l 2.1,-11.91 51.13,9.02 c 1.08,0.19 2.11,-0.53 2.3,-1.61 l 19.02,-107.85 c 0.19,-1.08 -0.53,-2.11 -1.61,-2.3 v 0 z M 211.11,15.84 c 1.64,0 2.98,1.33 2.98,2.98 0,1.65 -1.33,2.98 -2.98,2.98 -1.65,0 -2.98,-1.33 -2.98,-2.98 0,-1.65 1.33,-2.98 2.98,-2.98 z M 35.18,15.73 c 1.64,0 2.98,1.33 2.98,2.98 0,1.65 -1.33,2.98 -2.98,2.98 -1.65,0 -2.98,-1.33 -2.98,-2.98 0,-1.65 1.33,-2.98 2.98,-2.98 z m 0,225.16 c 1.64,0 2.98,1.33 2.98,2.98 0,1.65 -1.33,2.98 -2.98,2.98 -1.65,0 -2.98,-1.33 -2.98,-2.98 0,-1.65 1.33,-2.98 2.98,-2.98 z M 292.63,15.72 c 1.64,0 2.98,1.33 2.98,2.98 0,1.65 -1.33,2.98 -2.98,2.98 -1.65,0 -2.98,-1.33 -2.98,-2.98 0,-1.65 1.33,-2.98 2.98,-2.98 z m 21,195.17 c -1.64,0 -2.98,-1.33 -2.98,-2.98 0,-1.65 1.33,-2.98 2.98,-2.98 1.65,0 2.98,1.33 2.98,2.98 0,1.65 -1.33,2.98 -2.98,2.98 z"
       id="path84"
       style="display:none;stroke:#ffff00"
       sodipodi:nodetypes="cccccsscccccsssscccccccccccccccscscccccsscccccccscccccccsccsssssssssssssssssssssssss"
       inkscape:label="inner" />
    <path
       class="cls-1"
       d="m 452.1,124.61 -51.04,-9 6.59,-37.39 c 0.19,-1.08 -0.53,-2.11 -1.61,-2.3 l -10.78,-1.9 V 13.31 c 0,-1.1 -0.89,-1.98 -1.98,-1.98 H 279.87 V 2.12 c 0,-1.1 -0.89,-1.98 -1.98,-1.98 h -55.63 c -1.1,0 -1.98,0.89 -1.98,1.98 v 9.21 H 29.77 c -1.1,0 -1.98,0.89 -1.98,1.98 v 252.15 l -3.7,3.71 -0.48,0.48 -22.89,22.89 c -0.77,0.77 -0.77,2.03 0,2.81 l 39.33,39.33 c 0.77,0.77 2.03,0.77 2.81,0 l 24.82,-24.82 c 11.28,-10.48 23.61,-19.81 36.11,-27.04 15.7,-9.07 32.56,-16.13 48.58,-20.42 17.46,-4.68 35.45,-7.12 52.12,-7.18 h 27.81 c 1.1,0 1.98,-0.89 1.98,-1.98 v -37.01 h 45.3 l 42.78,3 -1.71,9.72 c -0.19,1.08 0.53,2.11 1.61,2.3 l 54.62,9.63 c 1.08,0.19 2.11,-0.53 2.3,-1.61 l 2.1,-11.91 51.13,9.02 c 1.08,0.19 2.11,-0.53 2.3,-1.61 l 19.02,-107.85 c 0.19,-1.08 -0.53,-2.11 -1.61,-2.3 v 0 z"
       id="path627"
       style="display:none;stroke:#ffff00"
       sodipodi:nodetypes="cccccsscsssscsscccscscccccsscccscccccccscc"
       inkscape:label="original-noholes" />
    <path
       class="cls-1"
       d="m 211.11,15.84 c 1.64,0 2.98,1.33 2.98,2.98 0,1.65 -1.33,2.98 -2.98,2.98 -1.65,0 -2.98,-1.33 -2.98,-2.98 0,-1.65 1.33,-2.98 2.98,-2.98 z M 35.18,15.73 c 1.64,0 2.98,1.33 2.98,2.98 0,1.65 -1.33,2.98 -2.98,2.98 -1.65,0 -2.98,-1.33 -2.98,-2.98 0,-1.65 1.33,-2.98 2.98,-2.98 z m 0,225.16 c 1.64,0 2.98,1.33 2.98,2.98 0,1.65 -1.33,2.98 -2.98,2.98 -1.65,0 -2.98,-1.33 -2.98,-2.98 0,-1.65 1.33,-2.98 2.98,-2.98 z M 292.63,15.72 c 1.64,0 2.98,1.33 2.98,2.98 0,1.65 -1.33,2.98 -2.98,2.98 -1.65,0 -2.98,-1.33 -2.98,-2.98 0,-1.65 1.33,-2.98 2.98,-2.98 z m 21,195.17 c -1.64,0 -2.98,-1.33 -2.98,-2.98 0,-1.65 1.33,-2.98 2.98,-2.98 1.65,0 2.98,1.33 2.98,2.98 0,1.65 -1.33,2.98 -2.98,2.98 z"
       id="path832"
       style="display:none;stroke:#ffff00"
       sodipodi:nodetypes="sssssssssssssssssssssssss"
       inkscape:label="holes" />
    <path
       class="cls-1"
       d="m 452.1,124.61 -51.04,-9 6.59,-37.39 c 0.19,-1.08 -0.53,-2.11 -1.61,-2.3 l -10.78,-1.9 V 13.31 c 0,-1.1 -0.89,-1.98 -1.98,-1.98 H 279.87 V 2.12 c 0,-1.1 -0.89,-1.98 -1.98,-1.98 h -55.63 c -1.1,0 -1.98,0.89 -1.98,1.98 v 9.21 H 29.77 c -1.1,0 -1.98,0.89 -1.98,1.98 v 252.15 l -3.7,3.71 -0.48,0.48 -22.89,22.89 c -0.77,0.77 -0.77,2.03 0,2.81 l 39.33,39.33 c 0.77,0.77 2.03,0.77 2.81,0 l 24.82,-24.82 c 11.28,-10.48 23.61,-19.81 36.11,-27.04 15.7,-9.07 32.56,-16.13 48.58,-20.42 17.46,-4.68 35.45,-7.12 52.12,-7.18 h 27.81 c 1.1,0 1.98,-0.89 1.98,-1.98 v -37.01 h 45.3 l 42.78,3 -1.71,9.72 c -0.19,1.08 0.53,2.11 1.61,2.3 l 54.62,9.63 c 1.08,0.19 2.11,-0.53 2.3,-1.61 l 2.1,-11.91 51.13,9.02 c 1.08,0.19 2.11,-0.53 2.3,-1.61 l 19.02,-107.85 c 0.19,-1.08 -0.53,-2.11 -1.61,-2.3 v 0 z M 211.11,15.84 c 1.64,0 2.98,1.33 2.98,2.98 0,1.65 -1.33,2.98 -2.98,2.98 -1.65,0 -2.98,-1.33 -2.98,-2.98 0,-1.65 1.33,-2.98 2.98,-2.98 z M 35.18,15.73 c 1.64,0 2.98,1.33 2.98,2.98 0,1.65 -1.33,2.98 -2.98,2.98 -1.65,0 -2.98,-1.33 -2.98,-2.98 0,-1.65 1.33,-2.98 2.98,-2.98 z m 0,225.16 c 1.64,0 2.98,1.33 2.98,2.98 0,1.65 -1.33,2.98 -2.98,2.98 -1.65,0 -2.98,-1.33 -2.98,-2.98 0,-1.65 1.33,-2.98 2.98,-2.98 z M 292.63,15.72 c 1.64,0 2.98,1.33 2.98,2.98 0,1.65 -1.33,2.98 -2.98,2.98 -1.65,0 -2.98,-1.33 -2.98,-2.98 0,-1.65 1.33,-2.98 2.98,-2.98 z m 21,195.17 c -1.64,0 -2.98,-1.33 -2.98,-2.98 0,-1.65 1.33,-2.98 2.98,-2.98 1.65,0 2.98,1.33 2.98,2.98 0,1.65 -1.33,2.98 -2.98,2.98 z"
       id="path844"
       style="display:none;stroke:#ffff00"
       sodipodi:nodetypes="cccccsscsssscsscccscscccccsscccscccccccsccsssssssssssssssssssssssss"
       inkscape:label="original" />
    <path
       id="path84-7"
       style="display:none;fill:none;stroke:#ffff00;stroke-width:0.28px;stroke-miterlimit:10"
       class="cls-1"
       d="m 277.62305,-2.8808594 c -11.69542,0.050504 -23.39428,0.008 -35.09102,0.022717 -6.95967,0.017267 -13.9211,-0.03348 -20.87969,0.026111 -2.66946,0.2756082 -4.70933,2.96815338 -4.37304,5.6082031 0,1.8513021 0,3.7026041 0,5.5539062 -62.60538,0.0024 -125.211507,-0.00655 -187.816409,0.013672 -2.797207,0.076302 -5.023472,2.8777851 -4.673829,5.6140631 0,83.420963 10e-7,166.841927 0,250.262887 -8.85059,8.87214 -17.7391743,17.70781 -26.5585932,26.60742 -1.7436936,2.0637 -1.2867324,5.43875 0.81133615,7.08675 13.10232005,13.08485 26.16616005,26.21179 39.30194505,39.26091 2.065769,1.73949 5.440653,1.27767 7.08477,-0.82307 8.306554,-8.28342 16.561724,-16.61994 24.911807,-24.85873 13.196709,-12.17684 27.876554,-22.82529 43.909783,-30.95822 14.68143,-7.56451 30.25478,-13.45721 46.37687,-17.09557 6.7137,-1.53956 13.53203,-2.73759 20.31163,-3.61984 6.60959,-0.84939 13.29199,-1.38809 19.90452,-1.53608 7.74605,-0.14088 15.49426,-0.0255 23.24124,-0.0627 2.99266,-0.0252 5.99305,0.0443 8.98087,-0.058 2.60456,-0.33752 4.53479,-2.99433 4.21406,-5.57257 0,-11.12019 0,-22.24037 0,-33.36055 14.1998,0.01 28.40092,-0.0284 42.5999,0.0277 12.98428,0.9107 25.96855,1.8214 38.95283,2.7321 -0.40859,2.47248 -0.96218,4.9327 -1.20982,7.42461 -0.012,2.59848 2.32067,4.81298 4.87162,4.92069 18.14114,3.18668 36.27401,6.43252 54.42219,9.56681 2.71134,0.24659 5.21522,-2.10396 5.33553,-4.7868 0.48711,-2.76052 0.97423,-5.52104 1.46134,-8.28156 16.24412,2.85271 32.4798,5.76517 48.73047,8.56836 2.71227,0.2482 5.21882,-2.10196 5.33748,-4.7868 6.31862,-35.82756 12.64317,-71.65465 18.94572,-107.48468 0.40094,-2.7509 -1.94225,-5.42698 -4.68246,-5.57401 -15.83697,-2.79304 -31.67393,-5.58608 -47.5109,-8.37912 2.04321,-11.66398 4.14479,-23.319696 6.13868,-34.99023 0.24638,-2.711646 -2.10326,-5.221268 -4.78877,-5.339369 -2.54112,-0.447424 -5.08223,-0.894848 -7.62334,-1.342272 -0.01,-19.584325 0.0297,-39.171148 -0.0293,-58.753906 -0.22916,-2.694638 -2.94898,-4.754959 -5.60039,-4.421875 -36.58763,0 -73.17526,0 -109.76289,0 -0.0293,-2.3972653 0.0939,-4.8091901 -0.0985,-7.1967379 -0.41617,-2.3805757 -2.76549,-4.1155745 -5.14566,-4.0141996 z"
       inkscape:label="outer" />
    <path
       id="path2255"
       style="display:none;stroke:#ffff00"
       class="cls-1"
       inkscape:label="innerInset"
       d="m 223.29492,3.1445312 c -0.0364,3.7271892 -0.005,7.4572478 -0.0156,11.1855468 -1.14193,0 -2.28386,0 -3.42578,0 0,5.669922 0,11.339844 0,17.009766 -6.25196,0 -12.50391,0 -18.75586,0 0,-5.669922 0,-11.339844 0,-17.009766 -52.04427,0 -104.088545,0 -156.132816,0 0,4.724609 0,9.449219 0,14.173828 -4.725261,0 -9.450521,0 -14.175782,0 0,67.923177 1e-6,135.846354 0,203.769534 4.740235,0 9.480469,0 14.220704,0 0,7.66927 0,15.33854 0,23.00781 -4.739584,0 -9.479167,0 -14.21875,0 -6.15e-4,3.80729 -0.0015,7.61458 -0.002,11.42187 -9.06777,9.08067 -18.152037,18.14486 -27.210937,27.23438 8.582724,8.65036 17.228817,17.24452 25.841351,25.86784 4.009263,4.00629 8.018526,8.01258 12.02779,12.01888 8.26721,-8.1887 16.436999,-16.48129 24.725577,-24.64941 13.45018,-12.41966 28.393147,-23.30285 44.708893,-31.65523 16.19774,-8.40469 33.46159,-14.83431 51.33884,-18.57207 15.31812,-3.30433 31.00096,-4.94332 46.67356,-4.72666 7.45391,-0.001 14.90783,0.0105 22.36172,-0.0119 0.0547,-9.65369 0.008,-19.31349 0.0234,-28.96953 0,-3.33632 0,-6.67265 0,-10.00898 16.27007,0.008 32.54183,-0.0246 48.81084,0.0296 7.54808,0.52855 15.09616,1.0571 22.64424,1.58564 0,-5.52929 -10e-6,-11.05859 0,-16.58789 6.86197,0 13.72395,0 20.58593,0 0,6.04362 0,12.08724 0,18.13086 0.80781,0.30244 1.61573,0.60458 2.42383,0.90625 -0.63278,3.72282 -1.33698,7.43278 -1.94336,11.16016 10.91526,1.97645 21.85307,3.86147 32.77728,5.80122 6.59981,1.16572 13.20145,2.32108 19.8028,3.47808 0.87035,-4.60606 1.63641,-9.236 2.46484,-13.85157 17.68846,3.12737 35.3786,6.24464 53.07032,9.35352 2.17384,-12.04762 4.26042,-24.11466 6.4007,-36.16974 4.09652,-23.21884 8.18613,-46.4389 12.27898,-69.65839 -15.75978,-2.82171 -31.5361,-5.56706 -47.30225,-8.3594 -1.90314,-0.33535 -3.80608,-0.67184 -5.70947,-1.00583 2.31742,-13.10836 4.62462,-26.218518 6.92383,-39.330079 -4.07507,-0.760016 -8.16664,-1.446087 -12.24804,-2.177735 0.004,-20.727215 10e-4,-41.454429 -0.0117,-62.18164 -9.65372,-0.0547 -19.31349,-0.0078 -28.96953,-0.02344 -19.93399,0 -39.86797,0 -59.80196,0 0,5.669922 0,11.339844 0,17.009766 -7.19661,0 -14.39323,0 -21.58984,0 0,-5.669922 0,-11.339844 0,-17.009766 -1.67188,0 -3.34375,0 -5.01563,0 -0.0368,-3.715179 0.0573,-7.4834559 -0.041,-11.1660155 -10.11523,-0.053979 -20.23611,-0.00635 -30.35352,-0.021234 -7.72721,5.676e-4 -15.45442,0.00114 -23.18164,0.0017 z" />
  </g>
  <g
     inkscape:groupmode="layer"
     id="layer2"
     inkscape:label="Layer 2"
     style="display:none">
    <path
       id="path2196"
       style="display:inline;fill:none;stroke:#ffff00;stroke-width:0.28px;stroke-miterlimit:10"
       class="cls-1"
       inkscape:label="side-001"
       d="m 277.62267,-2.8805899 c -11.69541,0.050504 -23.39412,0.00726 -35.09084,0.021973 -6.95967,0.017267 -13.92161,-0.033223 -20.88019,0.026368 -2.66946,0.2756079 -4.70891,2.96892073 -4.37262,5.6089678 v 5.5533029 c -62.60532,0.0024 -125.211352,-0.00704 -187.816192,0.013184 -2.797204,0.076302 -5.024026,2.8785522 -4.674384,5.6148272 V 264.22142 c -8.850581,8.87213 -17.7385908,17.70674 -26.5580008,26.60634 -1.7436919,2.0637 -1.2865313,5.43902 0.81153514,7.08701 13.10230666,13.08484 26.16655366,26.21221 39.30232566,39.26131 2.065767,1.73949 5.439972,1.27749 7.084087,-0.82325 8.306546,-8.28341 16.561418,-16.61998 24.911493,-24.85876 13.196696,-12.17683 27.877578,-22.82553 43.910796,-30.95845 14.68141,-7.56451 30.25408,-13.45662 46.37615,-17.09498 6.7137,-1.53956 13.53223,-2.73743 20.31182,-3.61968 6.60958,-0.84939 13.29206,-1.38865 19.90459,-1.53664 7.74604,-0.14088 15.49457,-0.0258 23.24154,-0.063 2.99266,-0.0252 5.99327,0.0452 8.98109,-0.0571 2.60456,-0.33752 4.53368,-2.99557 4.21295,-5.57381 v -33.35937 c 14.19979,0.01 28.40077,-0.0283 42.59974,0.0278 l 38.95369,2.73198 c -0.40859,2.47247 -0.96234,4.93202 -1.20998,7.42393 -0.012,2.59848 2.32119,4.81277 4.87214,4.92048 18.14112,3.18668 36.27303,6.43275 54.4212,9.56703 2.71133,0.24659 5.21619,-2.10434 5.3365,-4.78717 0.48711,-2.76052 0.97336,-5.52037 1.46047,-8.28089 16.2441,2.85271 32.47954,5.76481 48.7302,8.568 2.71226,0.2482 5.2193,-2.10234 5.33796,-4.78718 6.31862,-35.82752 12.64256,-71.65447 18.9451,-107.48446 0.40094,-2.7509 -1.9415,-5.42678 -4.68171,-5.57381 l -47.51143,-8.37903 c 2.04321,-11.66397 4.14536,-23.319243 6.13925,-34.989765 0.24638,-2.711643 -2.10313,-5.221332 -4.78864,-5.339433 -2.54112,-0.447423 -5.08205,-0.895857 -7.62316,-1.343281 -0.01,-19.584305 0.0297,-39.170064 -0.0293,-58.752802 -0.22915,-2.694636 -2.94877,-4.7555113 -5.60017,-4.4224277 h -109.7638 c -0.0293,-2.3972629 0.0943,-4.8093359 -0.0981,-7.1968813 -0.41617,-2.3805734 -2.76591,-4.1151047 -5.14607,-4.0137299 z m -55.36311,3.02055144 h 55.62971 c 1.09,0 1.9805,0.88049846 1.9805,1.98049736 v 9.2096061 l 5.0157,0.0015 v 17.007081 h 15.59202 V 11.33153 l 92.80212,-0.0015 c 1.09,0 1.9805,0.880498 1.9805,1.980497 v 60.709862 l 10.77994,1.89993 c 1.08,0.19 1.79989,1.219839 1.60989,2.299838 l -6.59043,37.389203 51.04029,9.00013 0.0205,0.0103 c 1.07999,0.19 1.79988,1.21985 1.60988,2.29985 l -19.0198,107.85067 c -0.19,1.08 -1.21984,1.79988 -2.29984,1.60988 l -51.13111,-9.02063 -2.09915,11.91081 c -0.19,1.08 -1.21984,1.79989 -2.29984,1.60989 l -54.62042,-9.63002 c -1.08,-0.19 -1.79989,-1.21984 -1.60989,-2.29984 l 1.7095,-9.72085 -2.04056,-0.76319 v -17.20923 h -14.58419 v 16.80639 l -26.15516,-1.83401 h -45.29949 v 37.00981 c 0,1.09 -0.8805,1.9805 -1.98049,1.9805 h -27.81047 c -16.66998,0.06 -34.65991,2.50077 -52.11989,7.18077 -16.01998,4.28999 -32.87933,11.34876 -48.57932,20.41875 -12.499983,7.22999 -24.830392,16.55995 -36.110381,27.03994 l -24.819206,24.82067 c -0.779999,0.77 -2.041077,0.77 -2.811076,0 L 0.72071354,295.3498 c -0.76999923,-0.78 -0.76999923,-2.03962 0,-2.80962 l 22.88997946,-22.88997 0.479011,-0.48048 3.700249,-3.70904 0.0015,-13.17792 H 42.009396 V 235.27422 H 27.789953 V 25.504098 H 41.963986 V 11.33153 H 204.09817 v 17.007081 h 12.75604 V 11.330065 h 3.42632 V 2.1204589 c 0,-1.0899989 0.87903,-1.98049736 1.97903,-1.98049736 z M 292.63021,15.720265 c 1.64,0 2.97953,1.329537 2.97953,2.979535 0,1.649999 -1.32953,2.979535 -2.97953,2.979535 -1.65,0 -2.97954,-1.329536 -2.97954,-2.979535 0,-1.649998 1.32954,-2.979535 2.97954,-2.979535 z m -257.450014,0.01025 c 1.639998,0 2.979535,1.329537 2.979535,2.979535 0,1.649999 -1.329537,2.979535 -2.979535,2.979535 -1.649998,0 -2.979535,-1.329536 -2.979535,-2.979535 0,-1.649998 1.329537,-2.979535 2.979535,-2.979535 z M 211.11047,15.84038 c 1.64,0 2.97954,1.329537 2.97954,2.979535 0,1.649998 -1.32954,2.979535 -2.97954,2.979535 -1.64999,0 -2.981,-1.329537 -2.981,-2.979535 0,-1.649998 1.33101,-2.979535 2.981,-2.979535 z m 102.52004,189.08916 c 1.65,0 2.97954,1.33101 2.97954,2.981 0,1.65 -1.32954,2.97954 -2.97954,2.97954 -1.64,0 -2.981,-1.32954 -2.981,-2.97954 0,-1.64999 1.331,-2.981 2.981,-2.981 z M 35.180196,240.89051 c 1.639998,0 2.979535,1.32954 2.979535,2.97954 0,1.65 -1.329537,2.97953 -2.979535,2.97953 -1.649998,0 -2.979535,-1.32953 -2.979535,-2.97953 0,-1.65 1.329537,-2.97954 2.979535,-2.97954 z" />
  </g>
  <g
     inkscape:groupmode="layer"
     id="layer4"
     inkscape:label="Layer 3">
    <path
       id="path2268"
       style="display:inline;stroke:#ffff00"
       class="cls-1"
       inkscape:label="holes"
       d="m 211.11,15.84 c 1.64,0 2.98,1.33 2.98,2.98 0,1.65 -1.33,2.98 -2.98,2.98 -1.65,0 -2.98,-1.33 -2.98,-2.98 0,-1.65 1.33,-2.98 2.98,-2.98 z M 35.18,15.73 c 1.64,0 2.98,1.33 2.98,2.98 0,1.65 -1.33,2.98 -2.98,2.98 -1.65,0 -2.98,-1.33 -2.98,-2.98 0,-1.65 1.33,-2.98 2.98,-2.98 z m 0,225.16 c 1.64,0 2.98,1.33 2.98,2.98 0,1.65 -1.33,2.98 -2.98,2.98 -1.65,0 -2.98,-1.33 -2.98,-2.98 0,-1.65 1.33,-2.98 2.98,-2.98 z M 292.63,15.72 c 1.64,0 2.98,1.33 2.98,2.98 0,1.65 -1.33,2.98 -2.98,2.98 -1.65,0 -2.98,-1.33 -2.98,-2.98 0,-1.65 1.33,-2.98 2.98,-2.98 z m 21,195.17 c -1.64,0 -2.98,-1.33 -2.98,-2.98 0,-1.65 1.33,-2.98 2.98,-2.98 1.65,0 2.98,1.33 2.98,2.98 0,1.65 -1.33,2.98 -2.98,2.98 z M 277.62305,-2.8808594 c -11.69542,0.050504 -23.39428,0.008 -35.09102,0.022717 -6.95967,0.017267 -13.9211,-0.03348 -20.87969,0.026111 -2.66946,0.2756082 -4.70933,2.96815338 -4.37304,5.6082031 0,1.8513021 0,3.7026041 0,5.5539062 -62.60538,0.0024 -125.211507,-0.00655 -187.816409,0.013672 -2.797207,0.076302 -5.023472,2.8777851 -4.673829,5.6140631 0,83.420963 10e-7,166.841927 0,250.262887 -8.85059,8.87214 -17.7391743,17.70781 -26.5585932,26.60742 -1.7436936,2.0637 -1.2867324,5.43875 0.81133615,7.08675 13.10232005,13.08485 26.16616005,26.21179 39.30194505,39.26091 2.065769,1.73949 5.440653,1.27767 7.08477,-0.82307 8.306554,-8.28342 16.561724,-16.61994 24.911807,-24.85873 13.196709,-12.17684 27.876554,-22.82529 43.909783,-30.95822 14.68143,-7.56451 30.25478,-13.45721 46.37687,-17.09557 6.7137,-1.53956 13.53203,-2.73759 20.31163,-3.61984 6.60959,-0.84939 13.29199,-1.38809 19.90452,-1.53608 7.74605,-0.14088 15.49426,-0.0255 23.24124,-0.0627 2.99266,-0.0252 5.99305,0.0443 8.98087,-0.058 2.60456,-0.33752 4.53479,-2.99433 4.21406,-5.57257 0,-11.12019 0,-22.24037 0,-33.36055 14.1998,0.01 28.40092,-0.0284 42.5999,0.0277 12.98428,0.9107 25.96855,1.8214 38.95283,2.7321 -0.40859,2.47248 -0.96218,4.9327 -1.20982,7.42461 -0.012,2.59848 2.32067,4.81298 4.87162,4.92069 18.14114,3.18668 36.27401,6.43252 54.42219,9.56681 2.71134,0.24659 5.21522,-2.10396 5.33553,-4.7868 0.48711,-2.76052 0.97423,-5.52104 1.46134,-8.28156 16.24412,2.85271 32.4798,5.76517 48.73047,8.56836 2.71227,0.2482 5.21882,-2.10196 5.33748,-4.7868 6.31862,-35.82756 12.64317,-71.65465 18.94572,-107.48468 0.40094,-2.7509 -1.94225,-5.42698 -4.68246,-5.57401 -15.83697,-2.79304 -31.67393,-5.58608 -47.5109,-8.37912 2.04321,-11.66398 4.14479,-23.319696 6.13868,-34.99023 0.24638,-2.711646 -2.10326,-5.221268 -4.78877,-5.339369 -2.54112,-0.447424 -5.08223,-0.894848 -7.62334,-1.342272 -0.01,-19.584325 0.0297,-39.171148 -0.0293,-58.753906 -0.22916,-2.694638 -2.94898,-4.754959 -5.60039,-4.421875 -36.58763,0 -73.17526,0 -109.76289,0 -0.0293,-2.3972653 0.0939,-4.8091901 -0.0985,-7.1967379 -0.41617,-2.3805757 -2.76549,-4.1155745 -5.14566,-4.0141996 z m -54.32813,6.0253906 c -0.0364,3.7271892 -0.005,7.4572478 -0.0156,11.1855468 -1.14193,0 -2.28386,0 -3.42578,0 0,5.669922 0,11.339844 0,17.009766 -6.25196,0 -12.50391,0 -18.75586,0 0,-5.669922 0,-11.339844 0,-17.009766 -52.04427,0 -104.088545,0 -156.132816,0 0,4.724609 0,9.449219 0,14.173828 -4.725261,0 -9.450521,0 -14.175782,0 0,67.923177 1e-6,135.846354 0,203.769534 4.740235,0 9.480469,0 14.220704,0 0,7.66927 0,15.33854 0,23.00781 -4.739584,0 -9.479167,0 -14.21875,0 -6.15e-4,3.80729 -0.0015,7.61458 -0.002,11.42187 -9.06777,9.08067 -18.152037,18.14486 -27.210937,27.23438 8.582724,8.65036 17.228817,17.24452 25.841351,25.86784 4.009263,4.00629 8.018526,8.01258 12.02779,12.01888 8.26721,-8.1887 16.436999,-16.48129 24.725577,-24.64941 13.45018,-12.41966 28.393147,-23.30285 44.708893,-31.65523 16.19774,-8.40469 33.46159,-14.83431 51.33884,-18.57207 15.31812,-3.30433 31.00096,-4.94332 46.67356,-4.72666 7.45391,-0.001 14.90783,0.0105 22.36172,-0.0119 0.0547,-9.65369 0.008,-19.31349 0.0234,-28.96953 0,-3.33632 0,-6.67265 0,-10.00898 16.27007,0.008 32.54183,-0.0246 48.81084,0.0296 7.54808,0.52855 15.09616,1.0571 22.64424,1.58564 0,-5.52929 -10e-6,-11.05859 0,-16.58789 6.86197,0 13.72395,0 20.58593,0 0,6.04362 0,12.08724 0,18.13086 0.80781,0.30244 1.61573,0.60458 2.42383,0.90625 -0.63278,3.72282 -1.33698,7.43278 -1.94336,11.16016 10.91526,1.97645 21.85307,3.86147 32.77728,5.80122 6.59981,1.16572 13.20145,2.32108 19.8028,3.47808 0.87035,-4.60606 1.63641,-9.236 2.46484,-13.85157 17.68846,3.12737 35.3786,6.24464 53.07032,9.35352 2.17384,-12.04762 4.26042,-24.11466 6.4007,-36.16974 4.09652,-23.21884 8.18613,-46.4389 12.27898,-69.65839 -15.75978,-2.82171 -31.5361,-5.56706 -47.30225,-8.3594 -1.90314,-0.33535 -3.80608,-0.67184 -5.70947,-1.00583 2.31742,-13.10836 4.62462,-26.218518 6.92383,-39.330079 -4.07507,-0.760016 -8.16664,-1.446087 -12.24804,-2.177735 0.004,-20.727215 10e-4,-41.454429 -0.0117,-62.18164 -9.65372,-0.0547 -19.31349,-0.0078 -28.96953,-0.02344 -19.93399,0 -39.86797,0 -59.80196,0 0,5.669922 0,11.339844 0,17.009766 -7.19661,0 -14.39323,0 -21.58984,0 0,-5.669922 0,-11.339844 0,-17.009766 -1.67188,0 -3.34375,0 -5.01563,0 -0.0368,-3.715179 0.0573,-7.4834559 -0.041,-11.1660155 -10.11523,-0.053979 -20.23611,-0.00635 -30.35352,-0.021234 -7.72721,5.676e-4 -15.45442,0.00114 -23.18164,0.0017 z" />
  </g>
</svg>
